<?xml version="1.0" encoding="UTF-8" standalone="no"?>
<svg
   xmlns:dc="http://purl.org/dc/elements/1.1/"
   xmlns:cc="http://creativecommons.org/ns#"
   xmlns:rdf="http://www.w3.org/1999/02/22-rdf-syntax-ns#"
   xmlns:svg="http://www.w3.org/2000/svg"
   xmlns="http://www.w3.org/2000/svg"
   xmlns:sodipodi="http://sodipodi.sourceforge.net/DTD/sodipodi-0.dtd"
   xmlns:inkscape="http://www.inkscape.org/namespaces/inkscape"
   version="1.1"
   width="24"
   height="24"
   viewBox="0 0 24 24"
   id="svg4"
   sodipodi:docname="witchcraft.svg"
   inkscape:version="0.92.4 5da689c313, 2019-01-14">
  <metadata
     id="metadata10">
    <rdf:RDF>
      <cc:Work
         rdf:about="">
        <dc:format>image/svg+xml</dc:format>
        <dc:type
           rdf:resource="http://purl.org/dc/dcmitype/StillImage" />
      </cc:Work>
    </rdf:RDF>
  </metadata>
  <defs
     id="defs8" />
  <sodipodi:namedview
     pagecolor="#ffffff"
     bordercolor="#666666"
     borderopacity="1"
     objecttolerance="10"
     gridtolerance="10"
     guidetolerance="10"
     inkscape:pageopacity="0"
     inkscape:pageshadow="2"
     inkscape:window-width="1366"
     inkscape:window-height="709"
     id="namedview6"
     showgrid="false"
     inkscape:zoom="9.8333333"
     inkscape:cx="11.160951"
     inkscape:cy="8.893763"
     inkscape:window-x="0"
     inkscape:window-y="0"
     inkscape:window-maximized="1"
     inkscape:current-layer="svg4" />
  <path
     inkscape:connector-curvature="0"
     style="opacity:1;fill:#000000;fill-opacity:1;stroke:none;stroke-width:2.35117936;stroke-miterlimit:4;stroke-dasharray:none;stroke-opacity:1"
     d="M 12,3.2871697 2,9.0606216 3.161549,11.073781 3.903457,10.645919 V 20 H 6.226548 V 19.9944 H 17.743281 V 20 h 2.32446 v -9.37054 l 0.77071,0.444321 L 22,9.0606216 Z m -1.215031,2.0831066 2.201045,1.4413022 2.482168,-0.9448687 -0.489574,1.8321409 0.160446,0.085029 2.604227,1.5030133 v 6.581186 l 1.561986,2.705701 -1.389197,0.80225 -0.984637,-1.704604 H 12.58557 l -1.043611,1.035381 c -0.07998,0.08518 -0.210199,0.08926 -0.298956,0.02745 l -0.931156,-0.750138 c -0.280463,0.116499 -0.452361,0.167847 -0.76522,0.208451 L 9.1023,19.295147 C 9.05568,19.396521 8.799951,19.459265 8.68815,19.429536 L 6.899893,18.950934 C 6.788084,18.920674 6.61474,18.814705 6.625616,18.702721 L 6.753152,17.671454 H 6.226548 L 6.311578,16.907603 5.092433,17.05982 C 4.984395,17.07042 4.787894,16.923022 4.76056,16.810238 L 4.280584,15.023343 c -0.03174,-0.114112 0.08905,-0.397257 0.191993,-0.441576 l 1.068291,-0.436098 c 0.01994,-0.235119 0.08278,-0.462303 0.16456,-0.687051 L 4.948438,12.476719 C 4.881458,12.386759 4.980528,12.180753 5.065,12.098223 L 6.226549,10.938044 V 9.304748 l 4.451457,-2.5699344 0.145364,-0.089144 z m 0.126168,0.2440987 0.149478,2.4657163 -1.947341,1.5208477 2.391662,0.619855 0.844757,2.321722 0.984645,-1.542782 3.690346,6.391931 0.388093,0.671968 0.584201,1.012071 1.007956,-0.581463 -0.584201,-1.013439 -0.388093,-0.671969 -3.679378,-6.372735 1.793748,-0.06172 -1.570215,-1.9075715 0.681566,-2.3752036 -2.299779,0.9037304 z m -1.626443,4.56665 c -0.107638,-0.02893 -0.218372,0.02387 -0.263302,0.123422 l -0.464893,1.098462 c -0.300067,0.03476 -0.571766,0.118535 -0.840644,0.226278 L 6.758636,10.911966 c -0.08433,-0.06425 -0.210972,-0.05765 -0.287982,0.02331 L 5.21037,12.194192 c -0.08132,0.07961 -0.08638,0.203003 -0.02191,0.289359 l 0.719967,0.944868 c -0.05645,0.141713 -0.107287,0.280301 -0.145364,0.422379 -0.03806,0.14198 -0.06123,0.284072 -0.08091,0.426494 l -1.099837,0.470384 c -0.09909,0.04269 -0.15676,0.152329 -0.126161,0.261926 l 0.462148,1.721062 c 0.02626,0.108544 0.133245,0.173857 0.237246,0.164568 l 1.188974,-0.146733 c 0.177747,0.232197 0.370597,0.440929 0.613003,0.621224 l -0.14674,1.183491 c -0.01032,0.108003 0.05968,0.209687 0.167306,0.238615 l 1.722439,0.460779 c 0.107637,0.02893 0.218372,-0.02394 0.263302,-0.123422 l 0.464893,-1.098462 c 0.301225,-0.03925 0.571984,-0.118135 0.842019,-0.230393 l 0.955844,0.721343 c 0.08545,0.05996 0.210971,0.05765 0.287982,-0.02331 l 1.260284,-1.258915 c 0.07702,-0.08067 0.08635,-0.203002 0.02191,-0.289358 l -0.717221,-0.958582 c 0.05413,-0.133217 0.10457,-0.266588 0.142619,-0.408666 0.03806,-0.141979 0.06305,-0.287863 0.08503,-0.438837 l 1.095716,-0.458033 c 0.09909,-0.04276 0.15247,-0.153397 0.126168,-0.261933 l -0.462155,-1.721064 c -0.02626,-0.108544 -0.132129,-0.177838 -0.237246,-0.164567 l -1.187606,0.142625 c -0.178891,-0.227963 -0.371958,-0.436822 -0.614371,-0.617117 l 0.14674,-1.183491 c 0.01032,-0.108003 -0.05968,-0.209687 -0.167306,-0.238615 z m -0.312669,2.334066 a 2.2012479,2.2012479 0 0 1 0.589684,0.07542 2.2012479,2.2012479 0 0 1 1.556502,2.696102 2.2012479,2.2012479 0 0 1 -2.696102,1.556502 2.2012479,2.2012479 0 0 1 -1.556502,-2.696102 2.2012479,2.2012479 0 0 1 2.106418,-1.631926 z"
     id="path992" />
</svg>
